<svg width="21" height="21" viewBox="0 0 21 21" fill="none" xmlns="http://www.w3.org/2000/svg">
<path fill-rule="evenodd" clip-rule="evenodd" d="M5.22516 4.73784C5.41269 4.55037 5.667 4.44506 5.93216 4.44506C6.19732 4.44506 6.45163 4.55037 6.63916 4.73784L10.9322 9.03084L15.2252 4.73784C15.3174 4.64233 15.4278 4.56615 15.5498 4.51374C15.6718 4.46133 15.803 4.43375 15.9358 4.43259C16.0685 4.43144 16.2002 4.45674 16.3231 4.50702C16.446 4.5573 16.5577 4.63156 16.6516 4.72545C16.7454 4.81934 16.8197 4.93099 16.87 5.05389C16.9203 5.17679 16.9456 5.30847 16.9444 5.44125C16.9433 5.57402 16.9157 5.70524 16.8633 5.82725C16.8109 5.94925 16.7347 6.0596 16.6392 6.15184L12.3462 10.4448L16.6392 14.7378C16.8213 14.9264 16.9221 15.179 16.9198 15.4412C16.9176 15.7034 16.8124 15.9543 16.627 16.1397C16.4416 16.3251 16.1908 16.4302 15.9286 16.4325C15.6664 16.4348 15.4138 16.334 15.2252 16.1518L10.9322 11.8588L6.63916 16.1518C6.45056 16.334 6.19795 16.4348 5.93576 16.4325C5.67356 16.4302 5.42275 16.3251 5.23734 16.1397C5.05193 15.9543 4.94676 15.7034 4.94449 15.4412C4.94221 15.179 5.043 14.9264 5.22516 14.7378L9.51816 10.4448L5.22516 6.15184C5.03769 5.96432 4.93237 5.71001 4.93237 5.44484C4.93237 5.17968 5.03769 4.92537 5.22516 4.73784V4.73784Z" fill="black"/>
</svg>
