<svg width="21" height="21" viewBox="0 0 21 21" fill="none" xmlns="http://www.w3.org/2000/svg">
<path fill-rule="evenodd" clip-rule="evenodd" d="M13.4846 6.0412C13.6721 6.22873 13.7774 6.48304 13.7774 6.7482C13.7774 7.01336 13.6721 7.26767 13.4846 7.4552L10.1916 10.7482L13.4846 14.0412C13.6668 14.2298 13.7676 14.4824 13.7653 14.7446C13.763 15.0068 13.6578 15.2576 13.4724 15.443C13.287 15.6284 13.0362 15.7336 12.774 15.7359C12.5118 15.7382 12.2592 15.6374 12.0706 15.4552L8.07062 11.4552C7.88315 11.2677 7.77783 11.0134 7.77783 10.7482C7.77783 10.483 7.88315 10.2287 8.07062 10.0412L12.0706 6.0412C12.2581 5.85373 12.5125 5.74841 12.7776 5.74841C13.0428 5.74841 13.2971 5.85373 13.4846 6.0412V6.0412Z" fill="black"/>
</svg>
